<svg xmlns="http://www.w3.org/2000/svg" viewBox="0 0 590 144" width="590" height="144" role="img" aria-label="Naberius Games"><title>Naberius Games</title><g transform="scale(0.7191)"><mask id="nb-mark-5"><rect width="200" height="200" fill="#fff"/><path d="M64 140 V66 L136 158 V84" fill="none" stroke="#000" stroke-width="19" stroke-linejoin="miter" stroke-miterlimit="10"/><circle cx="64" cy="152" r="12" fill="none" stroke="#000" stroke-width="7"/><circle cx="136" cy="72" r="12" fill="none" stroke="#000" stroke-width="7"/><line x1="117.3" y1="98.4" x2="82.7" y2="125.6" stroke="#000" stroke-width="7"/></mask><g fill="#E8B931" mask="url(#nb-mark-5)"><circle cx="100" cy="110" r="84"/><circle cx="48.4" cy="36.3" r="16"/><circle cx="100" cy="20" r="16"/><circle cx="151.6" cy="36.3" r="16"/></g></g><g transform="translate(165.82 1.50)"><g transform="translate(4.76 91.04)"><path d="M9.84 -4.08L9.84 -63.6L3.24 -66L3.24 -72.6Q5.28 -72.84 8.16 -73.2L8.16 -73.2L13.8 -73.8Q16.56 -74.04 18.66 -74.22Q20.76 -74.4 21.36 -74.28L21.36 -74.28Q22.44 -73.92 23.46 -72.9Q24.48 -71.88 25.32 -70.68Q26.16 -69.48 26.28 -68.88L26.28 -68.88L26.28 -9.36L31.68 -7.92L31.68 -66.48Q33.12 -67.32 35.22 -68.64Q37.32 -69.96 39.6 -71.22Q41.88 -72.48 43.56 -73.38Q45.24 -74.28 45.72 -74.4L45.72 -74.4Q49.8 -74.52 54.36 -73.86Q58.92 -73.2 61.56 -71.76L61.56 -71.76Q64.08 -68.4 65.1 -64.44Q66.12 -60.48 66.12 -54.48L66.12 -54.48L66.12 -9.36L72.72 -6.96L72.72 -0.48Q70.68 -0.24 67.86 0.12Q65.04 0.48 62.22 0.78Q59.4 1.08 57.3 1.2Q55.2 1.32 54.6 1.2L54.6 1.2Q53.64 0.96 52.56 -0.12Q51.48 -1.2 50.7 -2.34Q49.92 -3.48 49.68 -4.08L49.68 -4.08L49.68 -50.16Q49.68 -54.6 48.9 -56.76Q48.12 -58.92 46.56 -59.7Q45 -60.48 42.6 -60.48L42.6 -60.48Q41.76 -60.48 40.56 -60.18Q39.36 -59.88 38.16 -59.4L38.16 -59.4Q38.04 -59.28 38.04 -59.28L38.04 -59.28L38.04 -13.8Q38.04 -13.08 37.26 -11.22Q36.48 -9.36 35.16 -6.96L35.16 -6.96L31.8 -0.48Q29.88 -0.24 27.18 0.12Q24.48 0.48 21.9 0.78Q19.32 1.08 17.4 1.2Q15.48 1.32 14.88 1.2L14.88 1.2Q13.92 0.96 12.78 -0.12Q11.64 -1.2 10.86 -2.34Q10.08 -3.48 9.84 -4.08L9.84 -4.08ZM95.88 1.32L95.88 1.32Q89.76 1.32 85.86 -0.9Q81.96 -3.12 80.16 -6.96Q78.36 -10.8 78.36 -15.48L78.36 -15.48Q78.36 -18.24 78.9 -21.18Q79.44 -24.12 80.76 -27L80.76 -27L106.2 -30.24L106.2 -36.24Q106.2 -39.84 105.06 -41.34Q103.92 -42.84 100.8 -43.08L100.8 -43.08Q98.76 -43.2 95.7 -43.2Q92.64 -43.2 89.46 -43.14Q86.28 -43.08 83.64 -42.96L83.64 -42.96L81.84 -45.36L84.48 -55.44Q88.32 -55.68 92.28 -55.86Q96.24 -56.04 99.96 -55.98Q103.68 -55.92 106.8 -55.44L106.8 -55.44Q108.6 -55.2 111.12 -53.28Q113.64 -51.36 116.1 -48.6Q118.56 -45.84 120.18 -43.08Q121.8 -40.32 121.8 -38.52L121.8 -38.52L121.8 -9.12L126.48 -7.32L126.48 -0.96Q123.72 -0.48 120.42 0.06Q117.12 0.6 114.48 0.96Q111.84 1.32 111.12 1.32L111.12 1.32Q110.76 1.32 109.68 0.36Q108.6 -0.6 107.7 -1.68Q106.8 -2.76 106.8 -3.24L106.8 -3.24L106.8 -6.72Q105.12 -5.52 103.32 -4.08L103.32 -4.08Q100.56 -1.92 98.46 -0.3Q96.36 1.32 95.88 1.32ZM106.2 -23.4L93.96 -20.64Q93.72 -19.92 93.72 -19.08L93.72 -19.08Q93.48 -17.64 93.48 -16.32L93.48 -16.32Q93.48 -13.68 94.44 -11.76Q95.4 -9.84 98.16 -9.84L98.16 -9.84Q99 -9.84 100.62 -10.5Q102.24 -11.16 104.28 -12.36L104.28 -12.36Q105.24 -12.84 106.2 -13.44L106.2 -13.44L106.2 -23.4ZM161.04 -56.04L161.04 -56.04Q165.36 -56.04 169.02 -54.3Q172.68 -52.56 175.38 -49.2Q178.08 -45.84 179.58 -40.92Q181.08 -36 181.08 -29.64L181.08 -29.64Q181.08 -23.88 180.18 -18.9Q179.28 -13.92 178.08 -11.28L178.08 -11.28Q177 -9.96 174.18 -7.86Q171.36 -5.76 168.06 -3.66Q164.76 -1.56 161.94 -0.12Q159.12 1.32 157.8 1.32L157.8 1.32Q157.2 1.32 154.26 0.9Q151.32 0.48 147.48 -0.12Q143.64 -0.72 140.1 -1.32Q136.56 -1.92 134.64 -2.4L134.64 -2.4L134.64 -68.28L129.96 -69.96L129.96 -76.2Q131.16 -76.44 133.56 -76.86Q135.96 -77.28 138.54 -77.64Q141.12 -78 143.16 -78.24Q145.2 -78.48 145.8 -78.48L145.8 -78.48Q146.16 -78.48 147.24 -77.58Q148.32 -76.68 149.28 -75.6Q150.24 -74.52 150.24 -74.04L150.24 -74.04L149.4 -48.36L150.12 -48.12L158.76 -54.6Q160.68 -56.04 161.04 -56.04ZM158.52 -44.64L158.52 -44.64Q158.16 -44.64 156.48 -43.92Q154.8 -43.2 153 -42.36Q151.2 -41.52 150.24 -40.92L150.24 -40.92L150.24 -9.96Q151.92 -9.12 154.08 -8.28Q156.24 -7.44 158.22 -7.02Q160.2 -6.6 161.04 -6.84L161.04 -6.84Q162.12 -7.32 162.9 -9.48Q163.68 -11.64 164.1 -16.2Q164.52 -20.76 164.52 -27.96L164.52 -27.96Q164.52 -33.24 163.56 -36.96Q162.6 -40.68 161.16 -42.66Q159.72 -44.64 158.52 -44.64ZM232.56 -26.88L204.36 -24Q204.6 -19.56 205.8 -16.68L205.8 -16.68Q207.24 -13.08 209.4 -11.52Q211.56 -9.96 213.48 -9.96L213.48 -9.96Q213.72 -9.96 215.76 -10.08Q217.8 -10.2 220.68 -10.32Q223.56 -10.44 226.32 -10.56Q229.08 -10.68 230.76 -10.68L230.76 -10.68L230.76 -4.08Q228.96 -3.6 225.96 -2.64Q222.96 -1.68 219.78 -0.84Q216.6 0 214.02 0.66Q211.44 1.32 210.48 1.32L210.48 1.32Q204 1.32 198.96 -1.62Q193.92 -4.56 191.1 -10.32Q188.28 -16.08 188.28 -24.36L188.28 -24.36Q188.28 -30.12 189.18 -35.28Q190.08 -40.44 191.28 -43.08L191.28 -43.08Q192.36 -44.52 195.18 -46.68Q198 -48.84 201.36 -50.94Q204.72 -53.04 207.6 -54.54Q210.48 -56.04 211.8 -56.04L211.8 -56.04Q218.76 -56.04 223.38 -53.64Q228 -51.24 230.4 -45Q232.8 -38.76 232.56 -26.88L232.56 -26.88ZM204.48 -30.84L204.48 -30.84L217.32 -33.12Q217.32 -39.72 216.06 -43.56Q214.8 -47.4 211.56 -47.76L211.56 -47.76Q210.84 -47.88 209.64 -47.88Q208.44 -47.88 207.6 -47.52L207.6 -47.52Q206.28 -46.68 205.32 -41.04L205.32 -41.04Q204.6 -36.84 204.48 -30.84ZM248.16 1.32L248.16 1.32Q247.8 1.32 246.54 0.36Q245.28 -0.6 244.2 -1.74Q243.12 -2.88 243.12 -3.36L243.12 -3.36L243.12 -45.72L238.44 -47.28L238.44 -53.64L240.48 -54Q242.52 -54.36 245.28 -54.78Q248.04 -55.2 250.44 -55.62Q252.84 -56.04 253.44 -56.04L253.44 -56.04Q253.8 -56.04 255 -54.96Q256.2 -53.88 257.22 -52.74Q258.24 -51.6 258.24 -51.12L258.24 -51.12L258.12 -45.96Q259.56 -47.64 261.12 -49.38Q262.68 -51.12 264.18 -52.62Q265.68 -54.12 266.7 -55.08Q267.72 -56.04 267.96 -56.04L267.96 -56.04Q270 -56.04 272.64 -55.5Q275.28 -54.96 276.48 -54.48L276.48 -54.48Q276.72 -53.76 277.26 -52.2Q277.8 -50.64 277.8 -49.32L277.8 -49.32Q277.8 -48.72 277.14 -47.04Q276.48 -45.36 275.64 -43.62Q274.8 -41.88 274.02 -40.56Q273.24 -39.24 272.88 -39.24L272.88 -39.24Q272.52 -39.48 271.2 -40.02Q269.88 -40.56 268.38 -41.1Q266.88 -41.64 265.8 -41.64L265.8 -41.64Q265.44 -41.64 264.54 -41.4Q263.64 -41.16 262.62 -40.68Q261.6 -40.2 260.52 -39.78Q259.44 -39.36 258.72 -38.88L258.72 -38.88L258.72 -10.2L266.16 -8.04L266.16 -1.32L264.48 -1.08Q262.8 -0.84 260.34 -0.42Q257.88 0 255.24 0.42Q252.6 0.84 250.62 1.08Q248.64 1.32 248.16 1.32ZM290.64 1.32L290.64 1.32Q290.16 1.32 288.78 0.3Q287.4 -0.72 286.26 -1.92Q285.12 -3.12 285.12 -3.48L285.12 -3.48L285.12 -45.84L280.44 -47.28L280.44 -53.64L282.6 -54Q284.64 -54.36 287.52 -54.78Q290.4 -55.2 292.86 -55.62Q295.32 -56.04 295.8 -56.04Q296.28 -56.04 297.42 -55.02Q298.56 -54 299.58 -52.8Q300.6 -51.6 300.6 -51.12L300.6 -51.12L300.6 -8.88L305.28 -7.32L305.28 -1.08L303.36 -0.72Q301.32 -0.36 298.56 0.06Q295.8 0.48 293.52 0.9Q291.24 1.32 290.64 1.32ZM283.44 -72.48L283.92 -75.36Q283.92 -75.6 285.24 -76.8Q286.56 -78 288.42 -79.44Q290.28 -80.88 291.72 -81.96Q293.16 -83.04 293.52 -83.04L293.52 -83.04Q294.12 -83.04 295.62 -81.84Q297.12 -80.64 298.68 -78.84Q300.24 -77.04 301.38 -75.54Q302.52 -74.04 302.4 -73.44L302.4 -73.44L301.68 -70.44Q301.56 -69.96 300.24 -68.82Q298.92 -67.68 297.18 -66.3Q295.44 -64.92 293.94 -63.96Q292.44 -63 291.96 -63L291.96 -63Q291.36 -63 289.92 -64.26Q288.48 -65.52 286.92 -67.2Q285.36 -68.88 284.34 -70.44Q283.32 -72 283.44 -72.48L283.44 -72.48ZM333.36 1.32L333.36 1.32Q327.72 1.32 323.64 -0.36Q319.56 -2.04 317.4 -6.12Q315.24 -10.2 315.24 -17.52L315.24 -17.52L315.24 -45.48L310.68 -47.28L310.68 -53.52L312.72 -53.88Q314.76 -54.24 317.58 -54.72Q320.4 -55.2 322.74 -55.62Q325.08 -56.04 325.56 -56.04Q326.04 -56.04 327.3 -55.02Q328.56 -54 329.7 -52.92Q330.84 -51.84 330.84 -51.36L330.84 -51.36L330.84 -17.64Q330.84 -13.92 331.86 -12.3Q332.88 -10.68 334.14 -10.32Q335.4 -9.96 336.12 -9.96L336.12 -9.96Q336.6 -9.96 338.04 -10.62Q339.48 -11.28 341.28 -12.06Q343.08 -12.84 344.28 -13.44L344.28 -13.44L344.28 -45.48L339.72 -47.28L339.72 -53.52L341.88 -53.88Q343.92 -54.24 346.68 -54.72Q349.44 -55.2 351.84 -55.62Q354.24 -56.04 354.72 -56.04L354.72 -56.04Q355.32 -56.04 356.52 -55.02Q357.72 -54 358.8 -52.92Q359.88 -51.84 359.88 -51.36L359.88 -51.36L359.88 -9.12L364.56 -7.32L364.56 -0.96L362.52 -0.72Q360.36 -0.36 357.48 0.12Q354.6 0.6 352.2 0.96Q349.8 1.32 349.2 1.32L349.2 1.32Q348.84 1.32 347.76 0.36Q346.68 -0.6 345.78 -1.68Q344.88 -2.76 344.88 -3.24L344.88 -3.24L344.88 -6.72Q343.44 -5.64 341.64 -4.26Q339.84 -2.88 338.04 -1.62Q336.24 -0.36 334.98 0.48Q333.72 1.32 333.36 1.32ZM395.28 1.32L395.28 1.32Q393.84 1.32 390.84 1.2Q387.84 1.08 384.06 0.84Q380.28 0.6 376.68 0.3Q373.08 0 370.68 -0.24L370.68 -0.24L371.04 -19.32L378.72 -19.32L381.24 -9.96Q383.16 -9.36 385.62 -8.64Q388.08 -7.92 390.3 -7.56Q392.52 -7.2 393.6 -7.2L393.6 -7.2Q394.32 -7.2 394.92 -7.98Q395.52 -8.76 395.88 -9.96Q396.24 -11.16 396.24 -12.24L396.24 -12.24Q396.24 -14.28 394.92 -15.66Q393.6 -17.04 390.96 -18.6Q388.32 -20.16 384.36 -22.32L384.36 -22.32Q379.08 -25.32 376.14 -27.78Q373.2 -30.24 372.12 -32.88Q371.04 -35.52 371.04 -38.88L371.04 -38.88Q371.04 -40.44 371.16 -42.06Q371.28 -43.68 371.76 -45L371.76 -45Q372.84 -46.44 374.82 -48.36Q376.8 -50.28 379.02 -51.96Q381.24 -53.64 383.16 -54.84Q385.08 -56.04 386.28 -56.04L386.28 -56.04Q387.84 -56.04 390.72 -55.92Q393.6 -55.8 396.96 -55.68Q400.32 -55.56 403.38 -55.38Q406.44 -55.2 408.36 -54.96L408.36 -54.96L408 -38.64L399.36 -38.64L398.52 -45.24Q398.04 -45.48 396.3 -45.84Q394.56 -46.2 392.46 -46.5Q390.36 -46.8 388.62 -47.1Q386.88 -47.4 386.28 -47.4L386.28 -47.4Q385.56 -47.4 385.14 -46.92Q384.72 -46.44 384.54 -45.66Q384.36 -44.88 384.36 -43.8L384.36 -43.8Q384.36 -41.76 385.92 -40.08Q387.48 -38.4 389.7 -37.14Q391.92 -35.88 393.6 -34.8L393.6 -34.8Q396.12 -33.36 399.12 -31.56Q402.12 -29.76 404.88 -27.78Q407.64 -25.8 409.38 -23.4Q411.12 -21 411.12 -18.24L411.12 -18.24Q411.12 -16.8 410.94 -14.88Q410.76 -12.96 410.16 -11.52L410.16 -11.52Q409.32 -9.96 407.46 -7.74Q405.6 -5.52 403.38 -3.48Q401.16 -1.44 399 -0.06Q396.84 1.32 395.28 1.32Z" fill="#EEE9DF"/></g><g transform="translate(261.94 131.69)"><path d="M10.95 0.42L10.95 0.42Q8.13 0.42 5.94 -0.93Q3.75 -2.28 2.52 -4.74Q1.29 -7.2 1.29 -10.47Q1.29 -13.74 2.53 -16.18Q3.78 -18.63 6 -19.98Q8.22 -21.33 11.16 -21.33L11.16 -21.33Q14.43 -21.33 16.81 -19.71Q19.2 -18.09 20.25 -15.21L20.25 -15.21L17.01 -14.04Q16.29 -15.93 14.79 -16.98Q13.29 -18.03 11.16 -18.03L11.16 -18.03Q9.21 -18.03 7.77 -17.1Q6.33 -16.17 5.54 -14.49Q4.74 -12.81 4.74 -10.47Q4.74 -8.13 5.54 -6.43Q6.33 -4.74 7.77 -3.81Q9.21 -2.88 11.16 -2.88L11.16 -2.88Q12.18 -2.88 13.23 -3.17Q14.28 -3.45 15.18 -4.14Q16.08 -4.83 16.65 -6.09L16.65 -6.09Q17.01 -6.96 17.13 -8.13L17.13 -8.13L12 -8.13L12 -11.22L20.25 -11.22L20.25 0L17.19 0L16.89 -2.37Q16.41 -1.68 15.81 -1.17L15.81 -1.17Q14.85 -0.36 13.6 0.03Q12.36 0.42 10.95 0.42ZM39.16 0L35.35 0L43.63 -20.91L46.27 -20.91L54.52 0L50.74 0L49.15 -4.38L40.75 -4.38L39.16 0ZM41.89 -7.47L48.01 -7.47L44.95 -15.84L41.89 -7.47ZM73.46 0L69.98 0L69.98 -20.91L75.08 -20.91L80.63 -6.12L86.18 -20.91L91.25 -20.91L91.25 0L87.77 0L87.77 -16.02L82.31 -1.83L78.92 -1.83L73.46 -15.96L73.46 0ZM122.4 0L108.51 0L108.51 -20.91L122.4 -20.91L122.4 -17.82L111.99 -17.82L111.99 -12.27L121.59 -12.27L121.59 -9.15L111.99 -9.15L111.99 -3.09L122.4 -3.09L122.4 0ZM145.66 0.39L145.66 0.39Q142.36 0.39 140.28 -1.32Q138.19 -3.03 137.71 -5.88L137.71 -5.88L141.1 -6.72Q141.43 -4.74 142.68 -3.72Q143.92 -2.7 145.75 -2.7L145.75 -2.7Q146.77 -2.7 147.58 -3.07Q148.39 -3.45 148.85 -4.14Q149.32 -4.83 149.32 -5.7L149.32 -5.7Q149.32 -6.63 148.81 -7.25Q148.3 -7.86 147.34 -8.36Q146.38 -8.85 145 -9.39L145 -9.39Q143.11 -10.11 141.79 -10.95Q140.47 -11.79 139.78 -12.95Q139.09 -14.1 139.09 -15.69L139.09 -15.69Q139.09 -17.34 139.9 -18.61Q140.71 -19.89 142.18 -20.61Q143.65 -21.33 145.57 -21.33L145.57 -21.33Q147.64 -21.33 149.23 -20.4Q150.82 -19.47 151.78 -17.58L151.78 -17.58L149.02 -15.9Q148.39 -17.04 147.49 -17.65Q146.59 -18.27 145.45 -18.27L145.45 -18.27Q144.64 -18.27 143.98 -17.95Q143.32 -17.64 142.94 -17.07Q142.57 -16.5 142.57 -15.75L142.57 -15.75Q142.57 -14.97 143.02 -14.38Q143.47 -13.8 144.41 -13.32Q145.36 -12.84 146.83 -12.27L146.83 -12.27Q148.72 -11.55 150.04 -10.71Q151.36 -9.87 152.06 -8.71Q152.77 -7.56 152.77 -5.91L152.77 -5.91Q152.77 -4.08 151.87 -2.67Q150.97 -1.26 149.37 -0.43Q147.76 0.39 145.66 0.39Z" fill="#E8B931"/></g></g></svg>
